# xmcd CD database file
#
# Track frame offsets:
#	150
#	16922
#	42780
#	70905
#	87187
#	104735
#	119207
#	136125
#	153957
#	182162
#	199777
#	220910
#	238547
#	263007
#
# Disc length: 3740 seconds
#
# Revision: 0
# Processed by: cddbd v1.5.2PL0 Copyright (c) Steve Scherf et al.
# Submitted via: CDex 1.70beta2
#
DISCID=c40e9a0e
DTITLE=Kenny Baker and Warren Vache - Ain't Misbehavin'
DYEAR=1996
DGENRE=Jazz
TTITLE0=After You've Gone
TTITLE1=Ain't Misbehavin'
TTITLE2=Moonlight In Vermont
TTITLE3=Who's Sorry Now
TTITLE4=Let's Call The Whole Thing Off
TTITLE5=Just A Gigolo
TTITLE6=You Stepped Out Of A Dream
TTITLE7=Royal Garden Blues
TTITLE8=These Foolish Things
TTITLE9=I C'ant Give You Anything But Love, Baby
TTITLE10=Strike Up The Band
TTITLE11=When You Wish Upon A Star
TTITLE12=Robbins Nest
TTITLE13=Broadway
EXTD=YEAR: 1996
EXTT0=
EXTT1=
EXTT2=
EXTT3=
EXTT4=
EXTT5=
EXTT6=
EXTT7=
EXTT8=
EXTT9=
EXTT10=
EXTT11=
EXTT12=
EXTT13=
PLAYORDER=
